<?xml version="1.0" encoding="utf-8"?>
<!-- Svg Vector Icons : http://www.onlinewebfonts.com/icon -->
<!DOCTYPE svg PUBLIC "-//W3C//DTD SVG 1.1//EN" "http://www.w3.org/Graphics/SVG/1.1/DTD/svg11.dtd">
<svg version="1.1" xmlns="http://www.w3.org/2000/svg" xmlns:xlink="http://www.w3.org/1999/xlink" x="0px" y="0px" viewBox="0 0 256 256" enable-background="new 0 0 256 256" xml:space="preserve">
<metadata> Svg Vector Icons : http://www.onlinewebfonts.com/icon </metadata>
<g><g><path fill="#000000" d="M194.4,49.3c-2.5,0-4.9,0.2-7.3,0.5c-13.8-18.8-35.5-30-59.1-30c-23.6,0-45.3,11.2-59.1,30c-2.4-0.3-4.8-0.5-7.3-0.5C33.2,49.3,10,72.5,10,101c0,28.5,23.2,51.6,51.6,51.6c6.3,0,12.5-1.2,18.3-3.4c13.3,11.6,30.3,18.1,48.1,18.1c17.8,0,34.7-6.5,48.1-18.1c5.8,2.2,12,3.4,18.3,3.4c28.5,0,51.6-23.2,51.6-51.6C246,72.5,222.8,49.3,194.4,49.3z M194.4,137.8c-7.9,0-15.2-2.5-21.2-6.8c-10.8,13-26.9,21.5-45.2,21.5c-18.3,0-34.4-8.5-45.2-21.5c-6,4.2-13.3,6.8-21.2,6.8c-20.4,0-36.9-16.5-36.9-36.9c0-20.4,16.5-36.9,36.9-36.9c5,0,9.7,1,14,2.8c9.8-19.1,29.5-32.3,52.4-32.3c22.9,0,42.6,13.2,52.3,32.3c4.3-1.8,9.1-2.8,14-2.8c20.4,0,36.9,16.5,36.9,36.9C231.2,121.3,214.7,137.8,194.4,137.8z"/><path fill="#000000" d="M100.1,205c0,8.2,6.6,14.7,14.8,14.7c8.1,0,14.7-6.6,14.7-14.7c0-8.1-14.7-29.5-14.7-29.5S100.1,196.9,100.1,205z"/><path fill="#000000" d="M57.7,220.4c0,8.2,6.6,14.8,14.7,14.8s14.8-6.6,14.8-14.8c0-8.1-14.8-29.5-14.8-29.5S57.7,212.2,57.7,220.4z"/><path fill="#000000" d="M144,221.4c0,8.2,6.6,14.8,14.8,14.8c8.1,0,14.8-6.6,14.8-14.8c0-8.1-14.8-29.5-14.8-29.5S144,213.3,144,221.4z"/><path fill="#000000" d="M185.8,199.3c0,8.2,6.6,14.8,14.8,14.8c8.1,0,14.7-6.6,14.7-14.8c0-8.1-14.7-29.5-14.7-29.5S185.8,191.1,185.8,199.3z"/></g></g>
</svg>